<?xml version="1.0" encoding="utf-8"?>
<!-- Generator: Adobe Illustrator 22.1.0, SVG Export Plug-In . SVG Version: 6.00 Build 0)  -->
<svg version="1.1" id="Layer_1" xmlns="http://www.w3.org/2000/svg" xmlns:xlink="http://www.w3.org/1999/xlink" x="0px" y="0px"
	 viewBox="0 0 709 142" style="enable-background:new 0 0 709 142;" xml:space="preserve">
<style type="text/css">
	.st0{fill:none;stroke:#B11116;stroke-width:0.75;stroke-miterlimit:10;}
	.st1{fill:#233F76;}
	.st2{fill:none;}
	.st3{fill:#FFD400;}
	.st4{fill:#006EB6;}
	.st5{fill:#D49F2C;}
	.st6{clip-path:url(#SVGID_2_);}
	.st7{clip-path:url(#SVGID_4_);}
	.st8{clip-path:url(#SVGID_6_);}
	.st9{clip-path:url(#SVGID_8_);}
	.st10{clip-path:url(#SVGID_10_);}
	.st11{clip-path:url(#SVGID_12_);}
	.st12{clip-path:url(#SVGID_14_);}
	.st13{clip-path:url(#SVGID_16_);}
	.st14{fill:#FFFFFF;}
</style>
<g>
	<path class="st0" d="M29.4,92.4l0.2-3c-0.6,0.3-1.2,0.7-1.9,1c-0.7,0.3-1.4,0.6-2.1,0.9c-0.7,0.3-1.5,0.5-2.2,0.6
		c-0.7,0.2-1.5,0.2-2.1,0.2c-0.9,0-1.7-0.1-2.5-0.3c-0.8-0.2-1.4-0.6-2-1.1c-0.6-0.5-1-1.1-1.3-1.8c-0.2-0.4-0.3-0.8-0.4-1.3
		c0.1-0.9,0.4-1.8,0.7-2.6c0.6-1.2,1.3-2.1,2.3-2.9c1-0.8,2.1-1.3,3.3-1.7c1.2-0.4,2.5-0.6,3.9-0.6c0.5,0,1.1,0,1.6,0.1
		c0.5,0.1,1.1,0.2,1.6,0.3L30.2,68c-0.1-0.1-0.2-0.1-0.3-0.2l0.3-2.7c-1.1-0.6-2.4-1-3.7-1.2c-1.3-0.2-2.7-0.3-3.9-0.3
		c-3.4,0-6.4,0.6-9,1.9c-2.6,1.3-4.8,3-6.5,5.2c-1.8,2.2-3.1,4.8-4,7.7c-0.9,2.9-1.4,6-1.4,9.3c0,0.4,0,0.8,0.1,1.3
		c0,0.5-0.1,1-0.1,1.6c0,2.5,0.4,4.8,1.3,7c0.9,2.1,2,4,3.5,5.6c1.5,1.6,3.3,2.8,5.3,3.7c2,0.9,4.2,1.4,6.6,1.4
		c0.8,0,1.7-0.1,2.6-0.2c0.9-0.1,1.8-0.3,2.7-0.5c0.9-0.2,1.8-0.5,2.6-0.8c0.8-0.3,1.6-0.6,2.3-1l1.1-13.6
		C29.6,92.3,29.5,92.3,29.4,92.4z"/>
	<polygon class="st0" points="93.6,67.9 93.6,65.1 63.3,65.2 63,78.8 63.1,78.8 63,81.6 71.3,81.2 72.3,108 84.1,107.4 85.1,80.5 
		93.3,80.2 93.6,67.9 	"/>
	<path class="st0" d="M56.2,64.5l-15.5,0.8l-11.1,38.5l0.8,0.1l-0.8,2.8l14.2,1.4l1.4-6.5h6.3l1.7,6.5l13.8-1.9l-0.8-2.7l0.8-0.1
		L56.2,64.5z M48.5,82.6l1.5,7.2h-3L48.5,82.6z"/>
	<path class="st0" d="M119.7,91.6c-0.7,0.3-1.4,0.6-2.1,0.9c-0.7,0.3-1.4,0.4-2.2,0.6c-0.7,0.1-1.4,0.2-2.1,0.2
		c-1,0-1.9-0.1-2.7-0.4s-1.5-0.7-2.1-1.2c-0.6-0.5-1-1.2-1.3-2c-0.2-0.4-0.3-0.9-0.4-1.4c0.1-0.9,0.4-1.7,0.7-2.4
		c0.5-1.1,1.3-2,2.2-2.7c0.9-0.7,2-1.2,3.2-1.6c1.2-0.3,2.5-0.5,3.8-0.5c0.5,0,1.1,0,1.6,0.1c0.5,0.1,1,0.2,1.6,0.3l1-12.2
		c-0.1,0-0.2-0.1-0.2-0.1l0.2-2.7c-1.2-0.6-2.5-1-3.8-1.2c-1.3-0.2-2.6-0.3-3.9-0.3c-3.2,0-6,0.6-8.5,1.7c-2.5,1.1-4.5,2.7-6.2,4.7
		c-1.7,2-2.9,4.4-3.8,7.1c-0.9,2.7-1.3,5.7-1.3,8.8c0,0.4,0,0.9,0.1,1.3c0,0.5-0.1,1-0.1,1.5c0,2.6,0.4,5.1,1.3,7.5
		c0.9,2.3,2.1,4.4,3.6,6.1c1.5,1.8,3.4,3.2,5.6,4.2c2.2,1,4.6,1.5,7.2,1.5c0.8,0,1.6-0.1,2.5-0.2c0.9-0.1,1.8-0.3,2.6-0.5
		c0.9-0.2,1.7-0.5,2.6-0.8c0.8-0.3,1.6-0.6,2.3-1l0.4-13.6c0,0-0.1,0-0.1,0.1l0.1-2.9C121,90.9,120.4,91.2,119.7,91.6z"/>
	<polygon class="st0" points="155.8,65.2 143.1,64.9 143,86.6 137,86.6 137.7,68.7 137.6,68.7 137.7,65.8 124.5,65.2 123.4,105.9 
		123.5,105.9 123.4,108.7 135.9,108.7 136.2,96 142.6,96 142.7,108.2 156.6,107.5 156.6,104.7 156.6,104.7 	"/>
	<path class="st0" d="M183.5,64.5L168,65.3L157,103.8l0.8,0.1l-0.8,2.8l14.2,1.4l1.4-6.5h6.3l1.7,6.5l13.8-1.9l-0.8-2.7l0.8-0.1
		L183.5,64.5z M175.8,82.6l1.5,7.2h-3L175.8,82.6z"/>
	<path class="st0" d="M569.7,102.2C569.7,102.2,569.7,102.1,569.7,102.2l-0.3-21.5c-3.2,0.1-6.4,0.2-9.6,0.3
		c-3.2,0.1-6.3,0.2-9.5,0.3l-0.4,9.6l0.1,0l-0.1,2.7l7.2,0.1c-0.6,0.4-1.2,0.7-1.9,0.9c-0.9,0.2-1.7,0.3-2.5,0.3
		c-1.2,0-2.2-0.2-3.1-0.7c-0.9-0.5-1.7-1.1-2.3-1.9c-0.6-0.8-1.1-1.7-1.4-2.7c-0.2-0.6-0.3-1.3-0.4-2c0.1-1.2,0.4-2.3,0.9-3.3
		c0.6-1.4,1.5-2.6,2.6-3.6c1.1-1,2.4-1.7,3.9-2.2c1.5-0.5,3.1-0.8,4.8-0.8c1.2,0,2.5,0.1,3.7,0.2s2.5,0.5,3.7,0.9l0.9-12.2
		c-0.1,0-0.1-0.1-0.2-0.1l0.2-2.6c-0.8-0.5-1.7-0.9-2.7-1.2c-1-0.3-2-0.6-3-0.7c-1-0.2-2.1-0.3-3.1-0.4c-1-0.1-2-0.1-2.9-0.1
		c-2.4,0-4.7,0.3-6.9,1c-2.1,0.7-4.1,1.6-5.9,2.8c-1.8,1.2-3.4,2.6-4.8,4.3c-1.4,1.6-2.6,3.5-3.6,5.4c-1,2-1.7,4.1-2.3,6.3
		c-0.5,2.2-0.8,4.5-0.8,6.8c0,0.4,0,0.7,0,1.1c0,0.5,0,1.1,0,1.6c0,3,0.5,5.9,1.6,8.5c1.1,2.6,2.5,4.9,4.4,6.9
		c1.9,1.9,4.1,3.5,6.7,4.6c2.6,1.1,5.4,1.7,8.5,1.7c1.6,0,3.3-0.2,5-0.5c1.8-0.3,3.5-0.8,5.2-1.4c1.7-0.6,3.3-1.4,4.7-2.3
		c1.5-0.9,2.7-2,3.7-3.3L569.7,102.2z"/>
	<path class="st0" d="M668.7,82c-0.1-1.8-0.2-3.6-0.5-5.5c-0.3-1.8-0.7-3.6-1.2-5.3c-0.5-1.7-1.3-3.2-2.3-4.5
		c-1-1.3-2.2-2.4-3.6-3.2c-1.4-0.8-3.2-1.2-5.3-1.2c-1.1,0-2.1,0.1-3,0.4c-0.9,0.3-1.7,0.6-2.5,1.1c-0.8,0.5-1.5,1-2.2,1.6
		c-0.7,0.6-1.4,1.3-2.1,2.1c-0.4-1-0.8-1.9-1.3-2.5c-0.5-0.7-1.1-1.2-1.8-1.6c-0.7-0.4-1.4-0.7-2.2-0.8c-0.8-0.2-1.8-0.2-2.8-0.2
		c-0.8,0-1.6,0.1-2.3,0.4c-0.8,0.3-1.5,0.7-2.1,1.2c-0.7,0.5-1.3,1-1.9,1.6c-0.6,0.6-1.1,1.2-1.5,1.7l0-1l0,0l0-2.7l-15.2,0.6
		c0,3.6-0.1,7.2-0.3,10.8c-0.2,3.6-0.4,7.2-0.7,10.8c-0.3,3.6-0.6,7.2-0.9,10.8c-0.3,2.8-0.5,5.6-0.8,8.4L599.9,63l-17.7,0.9
		l-12.7,42.5l0.8,0.1l-0.8,2.6l16.3,1.6l1.6-7.2h7.3l1.9,7.2l15.6-2c-0.1,0.6-0.1,1.2-0.2,1.8H628l0.7-23.3c0-0.3,0-0.8,0-1.5
		c0-0.6,0-1.4,0.1-2.1s0.1-1.5,0.3-2.3c0.1-0.8,0.3-1.5,0.5-2.2c0.2-0.7,0.5-1.2,0.9-1.6c0.4-0.4,0.8-0.6,1.3-0.6
		c0.3,0,0.6,0.2,0.9,0.7c0.2,0.4,0.4,1,0.6,1.7c0.2,0.7,0.3,1.5,0.4,2.3c0.1,0.8,0.2,1.6,0.2,2.4s0.1,1.5,0.1,2.1c0,0.1,0,0.2,0,0.3
		c0,3.1-0.2,6.3-0.5,9.4c-0.4,3.7-0.8,7.4-1.3,11.1l0.3,0c-0.1,0.9-0.2,1.8-0.3,2.7l15.1-0.6c0.2-3.3,0.4-6.6,0.6-9.9
		c0.2-3.3,0.2-6.6,0.2-9.9c0-0.3,0-0.6,0-0.9c0-0.6,0-1.2,0-1.8c0-0.9,0-1.8-0.1-2.7c0-0.4,0-0.9,0-1.3c0-0.2,0-0.4,0-0.7
		c0-0.8,0.2-1.6,0.4-2.4c0.2-0.8,0.5-1.5,0.9-2c0.4-0.6,1-0.8,1.8-0.8c0.3,0,0.6,0.2,0.8,0.6c0.2,0.4,0.4,1,0.6,1.6
		c0.2,0.7,0.3,1.4,0.4,2.2c0.1,0.8,0.2,1.6,0.2,2.3s0.1,1.4,0.1,2c0,0.1,0,0.2,0,0.3c-0.1,3.1-0.2,6.3-0.6,9.4
		c-0.4,3.7-0.8,7.4-1.3,11.1l0.3,0c-0.1,0.9-0.2,1.8-0.3,2.7l16.4-0.8c0.3-3,0.5-6.1,0.7-9.1c0.2-3,0.3-6,0.3-9.1c0-0.5,0-1,0-1.5
		c0-0.4,0-0.8,0-1.2C668.8,85.5,668.7,83.8,668.7,82z M612.1,105.9c0,0.5-0.1,0.9-0.1,1.4l-0.4-1.3L612.1,105.9z M591.1,82.6
		l1.8,8.4h-3.6L591.1,82.6z M612.1,107.7h0.1c0,0.1,0,0.2,0,0.3L612.1,107.7z"/>
	<path class="st0" d="M707.3,82.9c0-1.7-0.1-3.5-0.4-5.2c-0.3-1.7-0.7-3.3-1.3-4.8c-0.6-1.5-1.3-2.9-2.2-4.2c-0.9-1.3-2-2.4-3.2-3.3
		c-1.2-0.9-2.6-1.6-4.2-2.2c-1.6-0.5-3.3-0.8-5.2-0.8c-2.3,0-4.4,0.3-6.2,1c-1.9,0.7-3.6,1.6-5.1,2.7c-1.5,1.2-2.8,2.5-3.9,4.1
		c-1.1,1.6-2,3.3-2.8,5.1c-0.7,1.8-1.3,3.7-1.6,5.7c-0.4,2-0.5,4-0.5,5.9c0,0.4,0,0.9,0,1.3c0,0.5,0,0.9,0,1.4
		c0,1.9,0.2,3.8,0.5,5.6c0.4,1.8,0.9,3.6,1.6,5.3s1.6,3.2,2.6,4.6c1.1,1.4,2.3,2.6,3.7,3.7c1.4,1,3,1.8,4.7,2.4
		c1.7,0.6,3.7,0.9,5.8,0.9c1,0,2.1-0.1,3.1-0.2c1.1-0.1,2.1-0.3,3.2-0.6c1-0.3,2-0.6,3-1.1c1-0.4,1.9-1,2.7-1.6l1.5-14.5
		c-0.1,0.1-0.2,0.1-0.3,0.2l0.3-2.9c1.3-0.1,2.5-0.2,3.8-0.3c0.3-1.8,0.4-3.7,0.4-5.5c0-0.4,0-0.8-0.1-1.2
		C707.2,83.8,707.3,83.4,707.3,82.9z M686,82.7c0.3-0.6,0.6-1.2,0.9-1.7c0.5-0.7,1-1.3,1.7-1.7c0.6-0.5,1.4-0.7,2.2-0.7
		c0.7,0,1.3,0.2,1.8,0.5c0.5,0.3,0.8,0.8,1.1,1.3c0.3,0.5,0.5,1,0.6,1.6L686,82.7z M700.8,92.9c-0.9,0.6-1.9,1.1-2.9,1.5
		c-1,0.5-2,0.9-3,1.2s-1.9,0.5-2.8,0.5c-1.6,0-3-0.5-4.2-1.4c-0.4-0.3-0.8-0.7-1.2-1.2c3.1-0.4,6.2-0.9,9.4-1.3
		c2.3-0.3,4.7-0.6,7.1-0.8C702.5,91.9,701.7,92.4,700.8,92.9z"/>
</g>
<g>
	<path d="M30.2,68l-1.6,12.2c-0.5-0.2-1.1-0.3-1.6-0.3c-0.5-0.1-1.1-0.1-1.6-0.1c-1.4,0-2.7,0.2-3.9,0.6c-1.2,0.4-2.3,0.9-3.3,1.7
		c-1,0.8-1.7,1.7-2.3,2.9c-0.6,1.2-0.8,2.5-0.8,4.1c0,1,0.2,1.9,0.5,2.6c0.3,0.7,0.7,1.3,1.3,1.8c0.6,0.5,1.2,0.8,2,1.1
		c0.8,0.2,1.6,0.3,2.5,0.3c0.7,0,1.4-0.1,2.1-0.2c0.7-0.2,1.5-0.4,2.2-0.6c0.7-0.3,1.4-0.5,2.1-0.9c0.7-0.3,1.3-0.7,1.9-1l-1.1,13.6
		c-0.7,0.4-1.5,0.7-2.3,1c-0.8,0.3-1.7,0.6-2.6,0.8s-1.8,0.4-2.7,0.5s-1.7,0.2-2.6,0.2c-2.4,0-4.5-0.5-6.6-1.4
		c-2-0.9-3.8-2.1-5.3-3.7c-1.5-1.6-2.7-3.4-3.5-5.6c-0.9-2.1-1.3-4.5-1.3-7c0-3.3,0.5-6.4,1.4-9.3c0.9-2.9,2.2-5.5,4-7.7
		c1.8-2.2,3.9-3.9,6.5-5.2c2.6-1.3,5.6-1.9,9-1.9c1.3,0,2.6,0.1,3.9,0.3C27.8,67.1,29.1,67.5,30.2,68z"/>
	<path d="M67,106.2l-13.8,1.9l-1.7-6.5h-6.3l-1.4,6.5l-14.2-1.4l11.1-38.5l15.5-0.8L67,106.2z M50.6,92.7l-2.1-10.1l-2.1,10.1H50.6z
		"/>
	<path d="M93.6,67.9l-0.3,12.3l-8.3,0.3l-1,26.8L72.3,108l-1.1-26.8L63,81.6L63.3,68L93.6,67.9z"/>
	<path d="M121,69.2l-1,12.2c-0.5-0.2-1.1-0.3-1.6-0.3c-0.5-0.1-1-0.1-1.6-0.1c-1.3,0-2.6,0.2-3.8,0.5c-1.2,0.3-2.3,0.9-3.2,1.6
		c-0.9,0.7-1.6,1.6-2.2,2.7c-0.5,1.1-0.8,2.4-0.8,3.9c0,1.1,0.2,2,0.5,2.8c0.3,0.8,0.7,1.5,1.3,2c0.6,0.5,1.3,0.9,2.1,1.2
		c0.8,0.3,1.7,0.4,2.7,0.4c0.7,0,1.4-0.1,2.1-0.2c0.7-0.1,1.4-0.3,2.2-0.6s1.4-0.5,2.1-0.9c0.7-0.3,1.3-0.7,1.9-1l-0.4,13.6
		c-0.7,0.4-1.5,0.7-2.3,1c-0.8,0.3-1.7,0.6-2.6,0.8c-0.9,0.2-1.8,0.4-2.6,0.5s-1.7,0.2-2.5,0.2c-2.6,0-5-0.5-7.2-1.5
		c-2.2-1-4-2.4-5.6-4.2c-1.5-1.8-2.7-3.8-3.6-6.1c-0.9-2.3-1.3-4.8-1.3-7.5c0-3.2,0.4-6.1,1.3-8.8c0.9-2.7,2.1-5.1,3.8-7.1
		c1.7-2,3.8-3.6,6.2-4.7c2.5-1.1,5.3-1.7,8.5-1.7c1.3,0,2.6,0.1,3.9,0.3C118.5,68.2,119.8,68.6,121,69.2z"/>
	<path d="M156.6,107.5l-13.9,0.7L142.6,96h-6.4l-0.4,12.7h-12.5l1.1-40.6l13.2,0.6l-0.8,20.8h6.2l0.1-21.7l12.7,0.3L156.6,107.5z"/>
	<path d="M194.3,106.2l-13.8,1.9l-1.7-6.5h-6.3l-1.4,6.5l-14.2-1.4L168,68.1l15.5-0.8L194.3,106.2z M177.9,92.7l-2.1-10.1l-2.1,10.1
		H177.9z"/>
</g>
<g>
	<path class="st1" d="M537.2,46.3l-17.1-3.8l-6-1.4l-4.1,2.6l-0.9-4.1l-4.1-0.8l-22.5-4.4l-7.1-1.4l-2.7,8l-0.4,7.2l-0.2,4.7
		c-1-0.1-2-0.2-3-0.3c-0.2,0-0.5,0-0.9,0h0c-2.8,0-9.9,0.5-16.9,5.4l-4-26.3l-0.8-5.3l-5.3-0.1l-11.9-0.1l-5.4-0.1l-0.6,3.6H421
		h-16.3h-5.3l-2.7,8l-0.9,5.2l-0.6,3.9l-1.1-1.7c-0.4-0.6-4.1-5.5-11-9c-0.5-0.3-1.1-0.4-1.7-0.6l2.4-1.2l6.7-3.4l2.7-8l-4.5-6
		l-7.8-10.2l-4.7-6.2l-5,6l-15.4,18.2l-2.7,3.1l-2.7,8l1.3,2.6c-2.3,1.4-4.4,3-6.3,4.9l-0.3-0.3l-15-14.4l-5.2-5l-9.7,6.4l-0.3-5
		l-7.5,2.1L286.8,33l-4.7,1.3l-2.7,8l0.2,4.9l0.2,5.9l0.2,4.8c-0.4,0-0.8,0-1.2,0c-6.2,0-12,1.9-17.2,5.6c0.8-4.4,0.5-9.2-1.5-14.1
		c-3.6-9-12.6-19.7-35.2-19.7v3.1c0,0,0,0,0,0l0-3.1h0c-5,0-10.4,0.5-16.2,1.6C198.5,33,181.9,42.5,180,43.6l-5.5,3.2l-2.7,8
		l3.3,5.4l10.6,17.4l3,5L194,80l0.8-0.4l25.7,56.9l2.2,5l5.2-1.5l14.2-4.2l5.9-1.7l2.7-8l-1.6-5.9l-6.5-23.7c0.6-0.6,1.3-1.1,2-1.8
		c-0.5,5.6,0.8,11.3,3.8,16.7c3,5.3,11.1,11.1,21.6,11.1c5.3,0,13.1-1.6,20.9-8.8l0.4,4.1l0.6,6.4l6.4-0.7l13.1-1.5l5.6-0.7l2.7-8
		l-0.1-5.7l-0.1-6.7l38.2,19.1l9.1,4.6l2.7-8l-0.1-10.2l-0.1-7c1.1-0.1,2.1-0.2,3.3-0.4c5.8-0.9,11-3.4,15.2-6l-1.2,7.2l-1,6.1
		l6.1,1l15.9,2.7l6.2,1l2.7-8l0,0l0.2,0.3l6.1,13.8l4.3-1.9l0.7,4.6l4.6,0.7l17.1,2.6l8.4,1.3l2.7-8l-0.3-1.8c0.3,0,0.6,0,0.9,0
		c3.1,0,6.1-0.5,9.1-1.5c0.6-0.2,1.2-0.4,1.8-0.7l-0.4,3.9l-0.5,5.8l5.7,0.9l12.9,2.1l1.6,0.3l0.1,3.8l0.1,4.6l4.4,1.3l11.8,3.4
		l5.8,1.7l1.9-5.7l0.7-2.2l0,0l1.9-5.7l23.9-72.2l2.2-6.6L537.2,46.3z M392.6,63.1l-2.3-1.9l0.5-0.6l2.6-2.9L392.6,63.1z"/>
	<path class="st2" d="M230.5,60.6l3.8,12.7c0,0,5.1-3.6,3.8-9.1C236.8,58.7,230.5,60.6,230.5,60.6z"/>
	<path class="st2" d="M369.3,54l-9.6,11c0,0-2.8-4.3,1.3-9.2C364.3,51.9,369.3,54,369.3,54z"/>
	<g>
		<path class="st3" d="M198.9,67.3l-6.3,3.2L178.9,48l2.6-1.6c0.6-0.4,15.8-9.8,27.6-12.2c5.8-1.1,11.2-1.7,16.1-1.7
			c16.2,0,27.3,6.2,31.9,17.8c3.7,9.3,1.1,19.5-7.6,29.5c-4.4,5-9.2,8.8-11.8,10.7l9.1,33.4l-19.8,5.8L198.9,67.3z M233.6,76.5
			c2.9-2.3,6.3-5.8,6.5-9.7c0.3-4.8-2.3-7.9-7.1-8.4c-0.3,0-0.6-0.1-0.9-0.1c-1.5,0-2.9,0.4-4.1,0.8L233.6,76.5z"/>
		<path class="st4" d="M225.2,35.6c11.2,0,23.9,3,29,15.9c8,19.9-20.1,37.7-20.1,37.7l8.9,32.6l-14.2,4.2L200.4,63l-6.6,3.4
			L183.2,49c0,0,15.2-9.5,26.5-11.8C213.4,36.5,219.1,35.6,225.2,35.6 M231.9,81.4c0,0,10.8-5.9,11.4-14.4c0.4-6.6-3.6-11-9.9-11.8
			c-0.4-0.1-0.8-0.1-1.2-0.1c-4.1,0-7.9,2.3-7.9,2.3L231.9,81.4 M225.2,29.4L225.2,29.4c-5.1,0-10.8,0.6-16.7,1.8
			c-12.3,2.4-28,12.2-28.6,12.6l-5.2,3.3l3.2,5.3l10.6,17.4l3,5l5.2-2.7l0.8-0.4l25.7,56.9l2.2,5l5.2-1.5l14.2-4.2l5.9-1.7l-1.6-5.9
			l-7.8-28.4c8.3-6.4,26.5-23.1,18.7-42.6C256.4,40.1,247.5,29.4,225.2,29.4L225.2,29.4z M232.1,61.5
			C232.1,61.5,232.1,61.5,232.1,61.5c0.2,0,0.4,0,0.5,0c4.2,0.5,4.5,3.2,4.4,5.1c-0.1,1.4-0.9,2.8-2,4.2L232.1,61.5L232.1,61.5z"/>
	</g>
	<g>
		<polygon class="st3" points="291.2,47.5 285.7,48.7 285.3,36.6 312.1,29 313.1,45.6 325.4,28.3 345.3,47.4 325.6,68.1 365.9,84.8 
			366.2,111.5 316,86.5 316.3,110.6 297.3,112.8 		"/>
		<path class="st4" d="M325.9,33.1l15,14.4l-20.7,21.8l42.6,17.6l0.2,19.5l-50.2-25l0.4,26.3l-13.1,1.5L294,43.7l-5.3,1.1l-0.2-5.9
			l20.7-5.9l1.3,21.4L325.9,33.1 M325,23.6l-4.2,5.9l-5.1,7.1l-0.2-3.9L315,25l-7.5,2.1L286.8,33l-4.7,1.3l0.2,4.9l0.2,5.9l0.2,7.5
			l5.7-1.2l5.4,58.6l0.6,6.4l6.4-0.7l13.1-1.5l5.6-0.7l-0.1-5.7l-0.2-16.1l41,20.4l9.1,4.6l-0.1-10.2l-0.2-19.5l0-4.1l-3.8-1.6
			L331,67l14.4-15.2l4.3-4.5l-4.5-4.3l-15-14.4L325,23.6L325,23.6z"/>
	</g>
	<g>
		<polygon class="st3" points="433.1,109.2 429.9,88.5 425.1,101.1 416.7,82.3 413.8,99.5 391.7,95.8 402,33 423.6,33 425,40.2 
			426.7,29.4 444,29.6 456.6,112.7 		"/>
		<path class="st4" d="M429.4,32.5l11.9,0.1l11.5,76.3l-17.1-2.6l-4.5-30.1l-6.4,16.6l-9.5-21.3l-4.1,24.3l-15.9-2.7l9.4-57.1H421
			l4.3,22L429.4,32.5 M424.1,26.2l-0.6,3.6H421h-16.3h-5.3l-0.9,5.2l-9.4,57.1l-1,6.1l6.1,1l15.9,2.7l6.2,1l1-6.2L418,93l1.1,2.5
			l6.1,13.8l3.3-8.6l1,6.7l0.7,4.6l4.6,0.7l17.1,2.6l8.4,1.3l-1.3-8.4l-11.5-76.3l-0.8-5.3l-5.3-0.1l-11.9-0.1L424.1,26.2
			L424.1,26.2z"/>
	</g>
	<g>
		<polygon class="st3" points="497.1,123.6 496.7,109.3 495.8,114.7 476.9,111.6 482.5,50.1 477.9,48.7 478.5,36.9 506.5,42.4 
			511.5,66 516.5,44.9 539.9,50.1 514,128.5 		"/>
		<path class="st4" d="M481.4,40.6l22.5,4.4l7.4,35.3l7.5-31.7l17.1,3.8L512,124.6l-11.8-3.4l-1.3-43.6l-5.7,33.5l-12.9-2.1
			l5.5-61.1l-4.7-1.4L481.4,40.6 M475.5,33.1l-0.4,7.2l-0.3,5.8l-0.2,4.9l4.5,1.4l-5.1,56.1l-0.5,5.8l5.7,0.9l12.9,2.1l1.6,0.3
			l0.1,3.8l0.1,4.6l4.4,1.3l11.8,3.4l5.8,1.7l1.9-5.7l23.9-72.2l2.2-6.6l-6.7-1.5l-17.1-3.8l-6-1.4l-1.4,6l-1.1,4.5l-1.7-7.9
			l-0.9-4.1l-4.1-0.8l-22.5-4.4L475.5,33.1L475.5,33.1z"/>
	</g>
	<g>
		<path class="st5" d="M209.7,37.3c10.3-2,36.6-5.7,44.5,14.2s-20.1,37.7-20.1,37.7l8.9,32.6l-14.2,4.2L200.4,63l-6.6,3.4L183.2,49
			C183.2,49,198.4,39.5,209.7,37.3z M224.3,57.5l7.6,23.9c0,0,10.8-5.9,11.4-14.4c0.4-6.6-3.6-11-9.9-11.8
			C228.8,54.7,224.3,57.5,224.3,57.5z"/>
	</g>
	<g>
		<polygon class="st5" points="288.5,39 309.2,33.1 310.5,54.5 325.9,33.1 340.8,47.5 320.2,69.3 362.8,86.9 363,106.4 312.8,81.4 
			313.2,107.8 300.1,109.3 294,43.7 288.7,44.8 		"/>
	</g>
	<g>
		<polygon class="st5" points="395.3,93.2 411.2,95.9 415.3,71.6 424.9,92.9 431.3,76.3 435.8,106.4 452.9,109 441.3,32.7 
			429.4,32.5 425.3,58.1 421,36.1 404.7,36.1 		"/>
	</g>
	<g>
		<polygon class="st5" points="481.4,40.6 503.9,45 511.3,80.3 518.8,48.6 535.9,52.4 512,124.6 500.2,121.2 498.9,77.6 
			493.2,111.1 480.3,109 485.8,47.9 481.1,46.5 		"/>
	</g>
	<g>
		<defs>
			<path id="SVGID_1_" d="M209.7,37.3c10.3-2,36.6-5.7,44.5,14.2s-20.1,37.7-20.1,37.7l8.9,32.6l-14.2,4.2L200.4,63l-6.6,3.4
				L183.2,49C183.2,49,198.4,39.5,209.7,37.3z M224.3,57.5l7.6,23.9c0,0,10.8-5.9,11.4-14.4c0.4-6.6-3.6-11-9.9-11.8
				C228.8,54.7,224.3,57.5,224.3,57.5z"/>
		</defs>
		<clipPath id="SVGID_2_">
			<use xlink:href="#SVGID_1_"  style="overflow:visible;"/>
		</clipPath>
		<g class="st6">
			<path class="st3" d="M206.3,40.4c10.3-2,36.6-5.7,44.5,14.2c8,19.9-20.1,37.7-20.1,37.7l8.9,32.6l-14.2,4.2L197,66.2l-6.6,3.4
				l-10.6-17.4C179.7,52.1,194.9,42.6,206.3,40.4z M220.9,60.7l7.6,23.9c0,0,10.8-5.9,11.4-14.4c0.4-6.6-3.6-11-9.9-11.8
				C225.4,57.8,220.9,60.7,220.9,60.7z"/>
		</g>
	</g>
	<g>
		<defs>
			<polygon id="SVGID_3_" points="288.5,39 309.2,33.1 310.5,54.5 325.9,33.1 340.8,47.5 320.2,69.3 362.8,86.9 363,106.4 
				312.8,81.4 313.2,107.8 300.1,109.3 294,43.7 288.7,44.8 			"/>
		</defs>
		<clipPath id="SVGID_4_">
			<use xlink:href="#SVGID_3_"  style="overflow:visible;"/>
		</clipPath>
		<g class="st7">
			<polygon class="st3" points="285.1,42.1 305.8,36.2 307.1,57.6 322.5,36.2 337.4,50.6 316.8,72.4 359.4,90.1 359.6,109.6 
				309.4,84.6 309.8,110.9 296.7,112.4 290.6,46.8 285.3,48 			"/>
		</g>
		<g class="st7">
			<g>
				<path class="st5" d="M390.1,50.1l-24.5,27.2c0,0,6.9-0.2,12.2-3.5c5.3-3.2,6-5.1,6-5.1l13.9,11.5c0,0-11.5,12-25.4,14.1
					s-29.2-0.8-35.8-13.6c-7.6-14.9,0.7-30.2,13.6-37.2s24.1-4.6,30.2-1.4C387.2,45.9,390.1,50.1,390.1,50.1z M352.8,55.4
					c-11.2,11.6,1.5,22,1.5,22l19.9-21.8C374.2,55.7,362.6,45.3,352.8,55.4z"/>
			</g>
		</g>
	</g>
	<g>
		<defs>
			<polygon id="SVGID_5_" points="395.3,93.2 411.2,95.9 415.3,71.6 424.9,92.9 431.3,76.3 435.8,106.4 452.9,109 441.3,32.7 
				429.4,32.5 425.3,58.1 421,36.1 404.7,36.1 			"/>
		</defs>
		<clipPath id="SVGID_6_">
			<use xlink:href="#SVGID_5_"  style="overflow:visible;"/>
		</clipPath>
		<g class="st8">
			<polygon class="st3" points="391.9,96.4 407.8,99.1 411.9,74.7 421.4,96.1 427.8,79.4 432.4,109.6 449.4,112.1 437.9,35.8 
				426,35.7 421.9,61.2 417.6,39.2 401.3,39.2 			"/>
		</g>
		<g class="st8">
			<g>
				<path class="st5" d="M463.1,58.3c8.5,0.2,16.8,5.1,19.2,15.9c2.4,10.7-6.6,25.9-17.5,29.6c-12.3,4.2-25.8-2.1-29.3-12.6
					c-3.2-9.8,2.9-21.5,11-27.5C454.6,57.7,463.1,58.3,463.1,58.3z M462.8,63.4c0,0-5.9-0.5-9.8,2.1s-6.2,7.8-4,13.4
					c2.2,5.6,8.5,8.8,15.1,6.9c6.6-1.9,8-6.1,8.8-9.6c0.8-3.5-1.6-7.2-1.6-7.2s0.5,4.8-3.5,6.9s-6.6,1.4-9.4-0.8
					c-2.9-2.2-2.9-6.6-0.6-9.3C459.9,63.1,462.8,63.4,462.8,63.4z"/>
			</g>
		</g>
	</g>
	<g>
		<defs>
			<polygon id="SVGID_7_" points="481.4,40.6 503.9,45 511.3,80.3 518.8,48.6 535.9,52.4 512,124.6 500.2,121.2 498.9,77.6 
				493.2,111.1 480.3,109 485.8,47.9 481.1,46.5 			"/>
		</defs>
		<clipPath id="SVGID_8_">
			<use xlink:href="#SVGID_7_"  style="overflow:visible;"/>
		</clipPath>
		<g class="st9">
			<polygon class="st3" points="478,43.8 500.5,48.2 507.9,83.4 515.4,51.7 532.5,55.6 508.6,127.8 496.8,124.4 495.5,80.7 
				489.8,114.3 476.9,112.1 482.4,51 477.7,49.6 			"/>
		</g>
	</g>
	<g>
		<path class="st3" d="M463.6,103.6c-10.1,0-19.1-6-21.9-14.5c-3.4-10.4,3.1-22.1,10.9-27.9c6.5-4.8,13.2-5.3,15.8-5.3
			c0.4,0,0.7,0,0.8,0c7.9,0.2,17.3,4.6,20,16.5c2.5,11.1-6.4,26.2-17.5,29.9C469,103.2,466.3,103.6,463.6,103.6z M459.7,70.3
			c-0.9,1.6-1.1,3.6-0.2,5.8c1.1,2.8,3.9,4.6,7.1,4.6c0.8,0,1.7-0.1,2.5-0.4c1.9-0.6,3.1-1.3,3.9-2.3c-1.3,0.5-2.5,0.7-3.7,0.7
			c-2.9,0-5-1.4-6.4-2.5c-1.8-1.4-2.9-3.4-3.1-5.7C459.7,70.5,459.7,70.4,459.7,70.3z"/>
		<path class="st4" d="M468.4,59c0.4,0,0.7,0,0.7,0c7.5,0.1,14.9,4.5,17.1,14.1c2.1,9.5-5.8,23-15.5,26.3c-2.3,0.8-4.7,1.2-7,1.2
			c-8.6,0-16.6-5-19-12.4c-2.8-8.7,2.6-19.1,9.8-24.4C460.3,59.3,466.4,59,468.4,59 M466.5,83.9c1.1,0,2.2-0.2,3.4-0.5
			c5.8-1.7,7.1-5.4,7.8-8.5c0.7-3.1-1.4-6.4-1.4-6.4s0.4,4.3-3.1,6.1c-1.5,0.8-2.7,1.1-3.9,1.1c-1.6,0-3-0.7-4.5-1.8
			c-2.6-2-2.6-5.8-0.6-8.2c1.6-2,3.6-2.1,4.3-2.1c0.1,0,0.1,0,0.1,0c0.1,0,0.1,0,0.1,0s0,0-0.1,0c-0.2,0-0.5,0-0.9,0
			c-1.7,0-5.2,0.2-7.6,1.9c-3.4,2.3-5.5,7-3.6,11.9C458.2,81.3,462,83.9,466.5,83.9 M468.4,52.7L468.4,52.7
			c-2.9,0-10.5,0.6-17.7,5.9c-4.6,3.4-8.4,8.2-10.7,13.5c-2.7,6.2-3.2,12.4-1.3,17.9c3.2,9.8,13.5,16.7,24.9,16.7
			c3.1,0,6.1-0.5,9.1-1.5c12.7-4.3,22.4-20.9,19.6-33.6c-2.5-11.3-11.5-18.7-22.9-19C469.1,52.7,468.8,52.7,468.4,52.7L468.4,52.7z"
			/>
	</g>
	<g>
		<path class="st5" d="M469.1,59c7.5,0.1,14.9,4.5,17.1,14.1c2.1,9.5-5.8,23-15.5,26.3c-11,3.7-22.9-1.9-26-11.2
			c-2.8-8.7,2.6-19.1,9.8-24.4C461.5,58.4,469.1,59,469.1,59z M468.8,63.5c0,0-5.3-0.4-8.7,1.8c-3.4,2.3-5.5,7-3.6,11.9
			c2,5,7.5,7.8,13.4,6.1c5.8-1.7,7.1-5.4,7.8-8.5c0.7-3.1-1.4-6.4-1.4-6.4s0.4,4.3-3.1,6.1c-3.6,1.8-5.8,1.3-8.4-0.7
			c-2.6-2-2.6-5.8-0.6-8.2C466.2,63.2,468.8,63.5,468.8,63.5z"/>
	</g>
	<g>
		<defs>
			<path id="SVGID_9_" d="M469.1,59c7.5,0.1,14.9,4.5,17.1,14.1c2.1,9.5-5.8,23-15.5,26.3c-11,3.7-22.9-1.9-26-11.2
				c-2.8-8.7,2.6-19.1,9.8-24.4C461.5,58.4,469.1,59,469.1,59z M468.8,63.5c0,0-5.3-0.4-8.7,1.8c-3.4,2.3-5.5,7-3.6,11.9
				c2,5,7.5,7.8,13.4,6.1c5.8-1.7,7.1-5.4,7.8-8.5c0.7-3.1-1.4-6.4-1.4-6.4s0.4,4.3-3.1,6.1c-3.6,1.8-5.8,1.3-8.4-0.7
				c-2.6-2-2.6-5.8-0.6-8.2C466.2,63.2,468.8,63.5,468.8,63.5z"/>
		</defs>
		<clipPath id="SVGID_10_">
			<use xlink:href="#SVGID_9_"  style="overflow:visible;"/>
		</clipPath>
		<g class="st10">
			<path class="st3" d="M465.7,62.1c7.5,0.1,14.9,4.5,17.1,14.1c2.1,9.5-5.8,23-15.5,26.3c-11,3.7-22.9-1.9-26-11.2
				c-2.8-8.7,2.6-19.1,9.8-24.4C458.1,61.5,465.7,62.1,465.7,62.1z M465.4,66.6c0,0-5.3-0.4-8.7,1.8s-5.5,7-3.6,11.9
				c2,5,7.5,7.8,13.4,6.1c5.8-1.7,7.1-5.4,7.8-8.5s-1.4-6.4-1.4-6.4s0.4,4.3-3.1,6.1c-3.6,1.8-5.8,1.3-8.4-0.7s-2.6-5.8-0.6-8.2
				C462.8,66.4,465.4,66.6,465.4,66.6z"/>
		</g>
	</g>
	<g>
		<polygon class="st3" points="356.8,28.3 376,5.5 388.4,21.9 360.7,36 		"/>
		<path class="st4" d="M375.9,10.5l7.8,10.2l-21.6,11l-1.5-3L375.9,10.5 M376.2,0.5l-5,6l-15.4,18.2l-2.7,3.1l1.8,3.7l1.5,3l2.8,5.6
			l5.6-2.9l21.6-11l6.7-3.4l-4.5-6l-7.8-10.2L376.2,0.5L376.2,0.5z"/>
	</g>
	<g>
		<path class="st3" d="M367.6,88.5c-12.1,0-21.2-4.8-25.6-13.4c-7.3-14.3,1-28.5,12.5-34.7c5-2.7,10.2-4.1,15.4-4.1
			c4.4,0,8.8,1,12.4,2.9c6.1,3.2,8.8,7,9.1,7.5l1.4,2l-9.5,10.6L399.6,73l-2.3,2.4c-0.4,0.4-10.4,10.6-22.6,12.5
			C372.3,88.3,369.9,88.5,367.6,88.5z M366.2,52.3c-2.1,0-4,0.9-5.8,2.7c-2.1,2.1-3,4.3-2.9,6.5c0.1,1.9,1,3.6,1.9,4.8L371,53.6
			C369.7,52.9,368,52.3,366.2,52.3z M378.9,64.1c1.2-0.9,1.8-1.5,1.9-1.7l0.3-0.8L378.9,64.1z"/>
		<path class="st4" d="M369.9,39.4c4.5,0,8.3,1.2,10.9,2.6c5.6,2.9,8,6.4,8,6.4l-20.1,22.4c0,0,5.7-0.2,10-2.8
			c4.4-2.7,4.9-4.2,4.9-4.2l11.4,9.5c0,0-9.5,9.9-20.8,11.6c-2.2,0.3-4.4,0.5-6.6,0.5c-9.3,0-18.4-3.2-22.8-11.7
			c-6.3-12.2,0.6-24.8,11.2-30.5C361.1,40.4,365.8,39.4,369.9,39.4 M359.4,70.9L375.7,53c0,0-4.3-3.8-9.5-3.8c-2.6,0-5.4,0.9-8,3.7
			C349,62.3,359.4,70.9,359.4,70.9 M369.9,33.2L369.9,33.2c-5.7,0-11.4,1.5-16.9,4.4c-12.8,6.9-22,22.8-13.8,38.9
			c5,9.7,15,15.1,28.4,15.1c2.5,0,5-0.2,7.5-0.6c13.3-2,24-12.9,24.4-13.4l4.7-4.8l-5.2-4.3L387.7,59l5.7-6.4l3.3-3.6l-2.7-4
			c-0.3-0.5-3.4-4.9-10.2-8.5C380.9,35,376.2,33.2,369.9,33.2L369.9,33.2z M360.8,60.1c0.2-0.7,0.7-1.7,1.9-3
			c0.8-0.8,1.6-1.3,2.2-1.5L360.8,60.1L360.8,60.1z"/>
	</g>
	<g>
		<polygon class="st5" points="360.6,28.7 362.1,31.8 383.7,20.8 375.9,10.5 		"/>
	</g>
	<g>
		<path class="st5" d="M388.8,48.4l-20.1,22.4c0,0,5.7-0.2,10-2.8c4.4-2.7,4.9-4.2,4.9-4.2l11.4,9.5c0,0-9.5,9.9-20.8,11.6
			c-11.4,1.7-24-0.7-29.4-11.2c-6.3-12.2,0.6-24.8,11.2-30.5s19.8-3.8,24.8-1.1C386.4,44.9,388.8,48.4,388.8,48.4z M358.2,52.8
			c-9.2,9.5,1.2,18.1,1.2,18.1L375.7,53C375.7,53,366.2,44.5,358.2,52.8z"/>
	</g>
	<g>
		<defs>
			<polygon id="SVGID_11_" points="360.6,28.7 362.1,31.8 383.7,20.8 375.9,10.5 			"/>
		</defs>
		<clipPath id="SVGID_12_">
			<use xlink:href="#SVGID_11_"  style="overflow:visible;"/>
		</clipPath>
		<g class="st11">
			<polygon class="st3" points="357.1,31.9 358.7,34.9 380.3,23.9 372.5,13.7 			"/>
		</g>
	</g>
	<g>
		<defs>
			<path id="SVGID_13_" d="M388.8,48.4l-20.1,22.4c0,0,5.7-0.2,10-2.8c4.4-2.7,4.9-4.2,4.9-4.2l11.4,9.5c0,0-9.5,9.9-20.8,11.6
				c-11.4,1.7-24-0.7-29.4-11.2c-6.3-12.2,0.6-24.8,11.2-30.5s19.8-3.8,24.8-1.1C386.4,44.9,388.8,48.4,388.8,48.4z M358.2,52.8
				c-9.2,9.5,1.2,18.1,1.2,18.1L375.7,53C375.7,53,366.2,44.5,358.2,52.8z"/>
		</defs>
		<clipPath id="SVGID_14_">
			<use xlink:href="#SVGID_13_"  style="overflow:visible;"/>
		</clipPath>
		<g class="st12">
			<path class="st3" d="M386.5,51l-20.1,22.4c0,0,5.7-0.2,10-2.8c4.4-2.7,4.9-4.2,4.9-4.2l11.4,9.5c0,0-9.5,9.9-20.8,11.6
				c-11.4,1.7-24-0.7-29.4-11.2c-6.3-12.2,0.6-24.8,11.2-30.5s19.8-3.8,24.8-1.1C384.2,47.5,386.5,51,386.5,51z M355.9,55.4
				c-9.2,9.5,1.2,18.1,1.2,18.1l16.3-17.9C373.4,55.6,364,47,355.9,55.4z"/>
		</g>
	</g>
	<g>
		<path class="st3" d="M272.6,111.4c-8.8,0-16.2-4.8-18.8-9.5c-3-5.3-8.5-19.2,6.1-33.2c5.4-5.2,11.9-7.9,18.9-7.9
			c6.2,0,10.6,2.1,10.8,2.2c5.6,2.7,9.9,9,11.1,16c1.4,8.3-1.6,16.7-8.4,23.5C285,109.9,277.6,111.4,272.6,111.4
			C272.6,111.4,272.6,111.4,272.6,111.4z M270.7,75.8c-0.9,1.6-1.1,3.6-0.2,5.8c1.1,2.8,3.9,4.6,7.1,4.6c0.8,0,1.7-0.1,2.5-0.4
			c1.9-0.6,3.1-1.3,3.9-2.3c-1.3,0.5-2.5,0.7-3.7,0.7c-2.9,0-5-1.4-6.4-2.5c-1.8-1.4-2.9-3.4-3.1-5.7
			C270.8,76,270.7,75.9,270.7,75.8z"/>
		<path class="st4" d="M278.7,64c5.5,0,9.4,1.9,9.4,1.9c8.9,4.3,15.6,20.8,1.9,34.5c-5.8,5.8-11.9,7.9-17.4,7.9
			c-7.6,0-14-4.1-16.1-7.9c-4-7.1-5.9-18.4,5.5-29.4C267.8,65.5,273.9,64,278.7,64 M277.6,89.4c1.1,0,2.2-0.2,3.4-0.5
			c5.8-1.7,7.1-5.4,7.8-8.5s-1.4-6.4-1.4-6.4s0.4,4.3-3.1,6.1c-1.5,0.8-2.7,1.1-3.9,1.1c-1.6,0-3-0.7-4.5-1.8
			c-2.6-2-2.6-5.8-0.6-8.2c1.6-2,3.6-2.1,4.3-2.1c0.1,0,0.1,0,0.1,0c0,0,0,0,0,0c0,0,0,0,0,0c0.1,0,0.1,0,0.1,0s0,0-0.1,0
			c0,0,0,0,0,0c0,0,0,0,0,0c-0.2,0-0.5,0-0.9,0c-1.7,0-5.2,0.2-7.6,1.9c-3.4,2.3-5.5,7-3.6,11.9C269.2,86.8,273.1,89.4,277.6,89.4
			 M278.7,57.7c-7.8,0-15.1,3-21.1,8.8c-11.2,10.7-13.6,24.5-6.6,37c3,5.3,11.1,11.1,21.6,11.1c5.5,0,13.8-1.7,21.9-9.8
			c7.5-7.6,10.8-16.9,9.2-26.2c-1.4-8.1-6.3-15.1-12.8-18.3C290.4,60,285.5,57.7,278.7,57.7L278.7,57.7z"/>
	</g>
	<g>
		<path class="st5" d="M288.2,65.9c0,0-13.8-6.7-26.2,5.1c-11.4,10.9-9.5,22.2-5.5,29.4c3.7,6.5,19.7,13.9,33.5,0
			C303.7,86.7,297,70.2,288.2,65.9z M288.8,80.4c-0.7,3.1-2,6.8-7.8,8.5c-5.8,1.7-11.4-1.1-13.4-6.1c-2-5,0.1-9.7,3.6-11.9
			c3.1-2.1,7.8-1.9,8.6-1.9c0,0,0,0,0,0c0.1,0,0.1,0,0.1,0s0,0-0.1,0c0,0,0,0,0,0c-0.5,0-2.7,0-4.4,2.1c-2,2.4-2,6.3,0.6,8.2
			c2.6,2,4.8,2.6,8.4,0.7c3.6-1.8,3.1-6.1,3.1-6.1S289.5,77.3,288.8,80.4z"/>
	</g>
	<g>
		<defs>
			<path id="SVGID_15_" d="M288.2,65.9c0,0-13.8-6.7-26.2,5.1c-11.4,10.9-9.5,22.2-5.5,29.4c3.7,6.5,19.7,13.9,33.5,0
				C303.7,86.7,297,70.2,288.2,65.9z M288.8,80.4c-0.7,3.1-2,6.8-7.8,8.5c-5.8,1.7-11.4-1.1-13.4-6.1c-2-5,0.1-9.7,3.6-11.9
				c3.1-2.1,7.8-1.9,8.6-1.9c0,0,0,0,0,0c0.1,0,0.1,0,0.1,0s0,0-0.1,0c0,0,0,0,0,0c-0.5,0-2.7,0-4.4,2.1c-2,2.4-2,6.3,0.6,8.2
				c2.6,2,4.8,2.6,8.4,0.7c3.6-1.8,3.1-6.1,3.1-6.1S289.5,77.3,288.8,80.4z"/>
		</defs>
		<clipPath id="SVGID_16_">
			<use xlink:href="#SVGID_15_"  style="overflow:visible;"/>
		</clipPath>
		<g class="st13">
			<path class="st3" d="M284.7,69c0,0-13.8-6.7-26.2,5.1c-11.4,10.9-9.5,22.2-5.5,29.4c3.7,6.5,19.7,13.9,33.5,0
				C300.3,89.8,293.6,73.3,284.7,69z M285.4,83.5c-0.7,3.1-2,6.8-7.8,8.5c-5.8,1.7-11.4-1.1-13.4-6.1c-2-5,0.1-9.7,3.6-11.9
				c3.1-2.1,7.8-1.9,8.6-1.9c0,0,0,0,0,0c0.1,0,0.1,0,0.1,0s0,0-0.1,0c0,0,0,0,0,0c-0.5,0-2.7,0-4.4,2.1c-2,2.4-2,6.3,0.6,8.2
				c2.6,2,4.8,2.6,8.4,0.7c3.6-1.8,3.1-6.1,3.1-6.1S286.1,80.4,285.4,83.5z"/>
		</g>
	</g>
</g>
<g>
	<path class="st14" d="M30.2,65.2l-1.6,12.2c-0.5-0.2-1.1-0.3-1.6-0.3S26,77,25.4,77c-1.4,0-2.7,0.2-3.9,0.6
		c-1.2,0.4-2.3,0.9-3.3,1.7c-1,0.8-1.7,1.7-2.3,2.9c-0.6,1.2-0.8,2.5-0.8,4.1c0,1,0.2,1.9,0.5,2.6c0.3,0.7,0.7,1.3,1.3,1.8
		c0.6,0.5,1.2,0.8,2,1.1c0.8,0.2,1.6,0.3,2.5,0.3c0.7,0,1.4-0.1,2.1-0.2c0.7-0.2,1.5-0.4,2.2-0.6c0.7-0.3,1.4-0.5,2.1-0.9
		c0.7-0.3,1.3-0.7,1.9-1L28.5,103c-0.7,0.4-1.5,0.7-2.3,1c-0.8,0.3-1.7,0.6-2.6,0.8s-1.8,0.4-2.7,0.5s-1.7,0.2-2.6,0.2
		c-2.4,0-4.5-0.5-6.6-1.4c-2-0.9-3.8-2.1-5.3-3.7c-1.5-1.6-2.7-3.4-3.5-5.6c-0.9-2.1-1.3-4.5-1.3-7c0-3.3,0.5-6.4,1.4-9.3
		c0.9-2.9,2.2-5.5,4-7.7c1.8-2.2,3.9-3.9,6.5-5.2c2.6-1.3,5.6-1.9,9-1.9c1.3,0,2.6,0.1,3.9,0.3C27.8,64.2,29.1,64.6,30.2,65.2z"/>
	<path class="st14" d="M67,103.4l-13.8,1.9l-1.7-6.5h-6.3l-1.4,6.5l-14.2-1.4l11.1-38.5l15.5-0.8L67,103.4z M50.6,89.8l-2.1-10.1
		l-2.1,10.1H50.6z"/>
	<path class="st14" d="M93.6,65.1l-0.3,12.3l-8.3,0.3l-1,26.8l-11.7,0.6l-1.1-26.8L63,78.8l0.3-13.6L93.6,65.1z"/>
	<path class="st14" d="M121,66.4l-1,12.2c-0.5-0.2-1.1-0.3-1.6-0.3c-0.5-0.1-1-0.1-1.6-0.1c-1.3,0-2.6,0.2-3.8,0.5
		c-1.2,0.3-2.3,0.9-3.2,1.6c-0.9,0.7-1.6,1.6-2.2,2.7c-0.5,1.1-0.8,2.4-0.8,3.9c0,1.1,0.2,2,0.5,2.8c0.3,0.8,0.7,1.5,1.3,2
		c0.6,0.5,1.3,0.9,2.1,1.2c0.8,0.3,1.7,0.4,2.7,0.4c0.7,0,1.4-0.1,2.1-0.2c0.7-0.1,1.4-0.3,2.2-0.6c0.7-0.3,1.4-0.5,2.1-0.9
		c0.7-0.3,1.3-0.7,1.9-1l-0.4,13.6c-0.7,0.4-1.5,0.7-2.3,1c-0.8,0.3-1.7,0.6-2.6,0.8c-0.9,0.2-1.8,0.4-2.6,0.5
		c-0.9,0.1-1.7,0.2-2.5,0.2c-2.6,0-5-0.5-7.2-1.5c-2.2-1-4-2.4-5.6-4.2c-1.5-1.8-2.7-3.8-3.6-6.1c-0.9-2.3-1.3-4.8-1.3-7.5
		c0-3.2,0.4-6.1,1.3-8.8c0.9-2.7,2.1-5.1,3.8-7.1c1.7-2,3.8-3.6,6.2-4.7c2.5-1.1,5.3-1.7,8.5-1.7c1.3,0,2.6,0.1,3.9,0.3
		S119.8,65.8,121,66.4z"/>
	<path class="st14" d="M156.6,104.7l-13.9,0.7l-0.1-12.2h-6.4l-0.4,12.7h-12.5l1.1-40.6l13.2,0.6l-0.8,20.8h6.2l0.1-21.7l12.7,0.3
		L156.6,104.7z"/>
	<path class="st14" d="M194.3,103.4l-13.8,1.9l-1.7-6.5h-6.3l-1.4,6.5l-14.2-1.4L168,65.3l15.5-0.8L194.3,103.4z M177.9,89.8
		l-2.1-10.1l-2.1,10.1H177.9z"/>
</g>
<g>
	<path d="M569.7,104.8c-1,1.3-2.2,2.4-3.7,3.3c-1.5,0.9-3,1.7-4.7,2.3c-1.7,0.6-3.4,1.1-5.2,1.4c-1.8,0.3-3.4,0.5-5,0.5
		c-3.1,0-5.9-0.6-8.5-1.7c-2.6-1.1-4.8-2.6-6.7-4.6c-1.9-1.9-3.4-4.2-4.4-6.9c-1.1-2.6-1.6-5.5-1.6-8.5c0-2.3,0.3-4.6,0.8-6.8
		c0.5-2.2,1.3-4.3,2.3-6.3c1-2,2.2-3.8,3.6-5.4c1.4-1.6,3-3.1,4.8-4.3c1.8-1.2,3.8-2.1,5.9-2.8c2.1-0.7,4.4-1,6.9-1
		c0.9,0,1.9,0,2.9,0.1c1,0.1,2.1,0.2,3.1,0.4c1,0.2,2,0.4,3,0.7c1,0.3,1.9,0.7,2.7,1.2l-0.9,12.2c-1.2-0.4-2.4-0.7-3.7-0.9
		c-1.3-0.2-2.5-0.2-3.7-0.2c-1.7,0-3.3,0.3-4.8,0.8c-1.5,0.5-2.8,1.3-3.9,2.2c-1.1,1-2,2.2-2.6,3.6c-0.6,1.4-1,3-1,4.8
		c0,1.1,0.1,2.2,0.4,3.2c0.3,1,0.7,1.9,1.4,2.7c0.6,0.8,1.4,1.4,2.3,1.9c0.9,0.5,2,0.7,3.1,0.7c0.8,0,1.6-0.1,2.5-0.3
		c0.9-0.2,1.6-0.6,2.2-1.1l0.1-2.5l-7.7-0.1l0.4-9.6c3.2-0.1,6.3-0.2,9.5-0.3c3.2-0.1,6.4-0.2,9.6-0.3L569.7,104.8z"/>
	<path d="M612.4,108.6l-15.8,2l-1.9-7.2h-7.3l-1.6,7.2l-16.3-1.6l12.7-42.5l17.7-0.9L612.4,108.6z M593.5,93.7l-2.4-11.1l-2.4,11.1
		H593.5z"/>
	<path d="M668.8,89.7c0,3-0.1,6.1-0.3,9.1c-0.2,3-0.4,6-0.7,9.1l-16.4,0.8c0.5-3.7,0.9-7.4,1.3-11.1c0.4-3.7,0.6-7.4,0.6-11.1
		c0-0.2,0-0.6,0-1.2c0-0.6-0.1-1.2-0.1-2c-0.1-0.7-0.1-1.5-0.2-2.3c-0.1-0.8-0.2-1.5-0.4-2.2c-0.2-0.7-0.4-1.2-0.6-1.6
		c-0.2-0.4-0.5-0.6-0.8-0.6c-0.7,0-1.3,0.3-1.8,0.8c-0.4,0.6-0.7,1.2-0.9,2c-0.2,0.8-0.3,1.6-0.4,2.4c0,0.8-0.1,1.5-0.1,2
		c0,0.9,0,1.8,0.1,2.7c0,0.9,0.1,1.8,0.1,2.7c0,3.3-0.1,6.6-0.2,9.9c-0.2,3.3-0.4,6.6-0.6,9.9l-15.1,0.6c0.5-3.7,0.9-7.4,1.3-11.1
		c0.4-3.7,0.6-7.4,0.6-11.1c0-0.2,0-0.7,0-1.3c0-0.6-0.1-1.3-0.1-2.1c-0.1-0.8-0.1-1.6-0.2-2.4c-0.1-0.8-0.2-1.6-0.4-2.3
		c-0.2-0.7-0.4-1.3-0.6-1.7c-0.2-0.4-0.5-0.7-0.9-0.7c-0.5,0-1,0.2-1.3,0.6c-0.4,0.4-0.7,1-0.9,1.6c-0.2,0.7-0.4,1.4-0.5,2.2
		c-0.1,0.8-0.2,1.6-0.3,2.3s-0.1,1.5-0.1,2.1c0,0.6,0,1.1,0,1.5l-0.7,23.3h-16.1c0.3-3.6,0.7-7.2,1-10.8c0.4-3.6,0.7-7.2,0.9-10.8
		c0.3-3.6,0.5-7.2,0.7-10.8c0.2-3.6,0.3-7.2,0.3-10.8l15.2-0.6l-0.1,3.7c0.5-0.6,1-1.2,1.6-1.8c0.6-0.6,1.2-1.1,1.9-1.6
		c0.7-0.5,1.4-0.9,2.1-1.2c0.8-0.3,1.5-0.4,2.3-0.4c1,0,2,0.1,2.8,0.2c0.8,0.2,1.6,0.4,2.2,0.8c0.7,0.4,1.3,0.9,1.8,1.6
		c0.5,0.7,1,1.5,1.3,2.5c0.7-0.7,1.4-1.4,2.1-2.1c0.7-0.6,1.4-1.2,2.2-1.6c0.8-0.5,1.6-0.8,2.5-1.1c0.9-0.3,1.9-0.4,3-0.4
		c2.1,0,3.8,0.4,5.3,1.2c1.4,0.8,2.7,1.9,3.6,3.2c1,1.3,1.7,2.8,2.3,4.5c0.5,1.7,1,3.5,1.2,5.3c0.3,1.8,0.5,3.6,0.5,5.5
		C668.7,86.5,668.8,88.2,668.8,89.7z"/>
	<path d="M707.3,85.6c0,1.8-0.1,3.7-0.4,5.5c-3.6,0.2-7.3,0.6-10.8,1.1c-3.6,0.5-7.2,1-10.8,1.5c0.6,1.5,1.4,2.8,2.6,3.7
		c1.2,0.9,2.6,1.4,4.2,1.4c0.9,0,1.8-0.2,2.8-0.5c1-0.3,2-0.7,3-1.2c1-0.5,2-1,2.9-1.5c0.9-0.6,1.7-1.1,2.4-1.5l-1.5,14.5
		c-0.8,0.6-1.7,1.2-2.7,1.6c-1,0.4-2,0.8-3,1.1c-1,0.3-2.1,0.5-3.2,0.6c-1.1,0.1-2.1,0.2-3.1,0.2c-2.1,0-4-0.3-5.8-0.9
		c-1.7-0.6-3.3-1.4-4.7-2.4s-2.7-2.2-3.7-3.7c-1.1-1.4-1.9-2.9-2.6-4.6c-0.7-1.7-1.2-3.4-1.6-5.3s-0.5-3.7-0.5-5.6
		c0-2,0.2-4,0.5-5.9s0.9-3.9,1.6-5.7c0.7-1.8,1.7-3.5,2.8-5.1c1.1-1.6,2.4-2.9,3.9-4.1c1.5-1.2,3.2-2.1,5.1-2.7c1.9-0.7,4-1,6.2-1
		c1.9,0,3.6,0.3,5.2,0.8c1.6,0.5,3,1.2,4.2,2.2c1.2,0.9,2.3,2,3.2,3.3c0.9,1.3,1.6,2.7,2.2,4.2c0.6,1.5,1,3.1,1.3,4.8
		C707.1,82.1,707.3,83.8,707.3,85.6z M694.5,83.9c0-0.6-0.1-1.2-0.2-1.8c-0.1-0.6-0.3-1.2-0.6-1.7c-0.3-0.5-0.7-0.9-1.1-1.3
		c-0.5-0.3-1.1-0.5-1.8-0.5c-0.9,0-1.6,0.2-2.2,0.7c-0.6,0.5-1.2,1-1.7,1.7c-0.5,0.7-0.9,1.4-1.1,2.2c-0.3,0.8-0.5,1.6-0.7,2.2
		l9.4-0.9V83.9z"/>
</g>
<g>
	<path class="st14" d="M569.7,102.1c-1,1.3-2.2,2.4-3.7,3.3c-1.5,0.9-3,1.7-4.7,2.3c-1.7,0.6-3.4,1.1-5.2,1.4
		c-1.8,0.3-3.4,0.5-5,0.5c-3.1,0-5.9-0.6-8.5-1.7s-4.8-2.6-6.7-4.6c-1.9-1.9-3.4-4.2-4.4-6.9s-1.6-5.5-1.6-8.5
		c0-2.3,0.3-4.6,0.8-6.8c0.5-2.2,1.3-4.3,2.3-6.3c1-2,2.2-3.8,3.6-5.4c1.4-1.6,3-3.1,4.8-4.3c1.8-1.2,3.8-2.1,5.9-2.8
		c2.1-0.7,4.4-1,6.9-1c0.9,0,1.9,0,2.9,0.1c1,0.1,2.1,0.2,3.1,0.4c1,0.2,2,0.4,3,0.7c1,0.3,1.9,0.7,2.7,1.2L565.1,76
		c-1.2-0.4-2.4-0.7-3.7-0.9s-2.5-0.2-3.7-0.2c-1.7,0-3.3,0.3-4.8,0.8c-1.5,0.5-2.8,1.3-3.9,2.2c-1.1,1-2,2.2-2.6,3.6
		c-0.6,1.4-1,3-1,4.8c0,1.1,0.1,2.2,0.4,3.2c0.3,1,0.7,1.9,1.4,2.7c0.6,0.8,1.4,1.4,2.3,1.9c0.9,0.5,2,0.7,3.1,0.7
		c0.8,0,1.6-0.1,2.5-0.3c0.9-0.2,1.6-0.6,2.2-1.1l0.1-2.5l-7.7-0.1l0.4-9.6c3.2-0.1,6.3-0.2,9.5-0.3c3.2-0.1,6.4-0.2,9.6-0.3
		L569.7,102.1z"/>
	<path class="st14" d="M612.4,105.9l-15.8,2l-1.9-7.2h-7.3l-1.6,7.2l-16.3-1.6l12.7-42.5l17.7-0.9L612.4,105.9z M593.5,91l-2.4-11.1
		L588.7,91H593.5z"/>
	<path class="st14" d="M668.8,87c0,3-0.1,6.1-0.3,9.1c-0.2,3-0.4,6-0.7,9.1l-16.4,0.8c0.5-3.7,0.9-7.4,1.3-11.1
		c0.4-3.7,0.6-7.4,0.6-11.1c0-0.2,0-0.6,0-1.2c0-0.6-0.1-1.2-0.1-2c-0.1-0.7-0.1-1.5-0.2-2.3c-0.1-0.8-0.2-1.5-0.4-2.2
		c-0.2-0.7-0.4-1.2-0.6-1.6c-0.2-0.4-0.5-0.6-0.8-0.6c-0.7,0-1.3,0.3-1.8,0.8c-0.4,0.6-0.7,1.2-0.9,2c-0.2,0.8-0.3,1.6-0.4,2.4
		c0,0.8-0.1,1.5-0.1,2c0,0.9,0,1.8,0.1,2.7c0,0.9,0.1,1.8,0.1,2.7c0,3.3-0.1,6.6-0.2,9.9c-0.2,3.3-0.4,6.6-0.6,9.9l-15.1,0.6
		c0.5-3.7,0.9-7.4,1.3-11.1c0.4-3.7,0.6-7.4,0.6-11.1c0-0.2,0-0.7,0-1.3c0-0.6-0.1-1.3-0.1-2.1c-0.1-0.8-0.1-1.6-0.2-2.4
		c-0.1-0.8-0.2-1.6-0.4-2.3c-0.2-0.7-0.4-1.3-0.6-1.7c-0.2-0.4-0.5-0.7-0.9-0.7c-0.5,0-1,0.2-1.3,0.6c-0.4,0.4-0.7,1-0.9,1.6
		c-0.2,0.7-0.4,1.4-0.5,2.2c-0.1,0.8-0.2,1.6-0.3,2.3s-0.1,1.5-0.1,2.1c0,0.6,0,1.1,0,1.5l-0.7,23.3h-16.1c0.3-3.6,0.7-7.2,1-10.8
		c0.4-3.6,0.7-7.2,0.9-10.8c0.3-3.6,0.5-7.2,0.7-10.8c0.2-3.6,0.3-7.2,0.3-10.8l15.2-0.6l-0.1,3.7c0.5-0.6,1-1.2,1.6-1.8
		c0.6-0.6,1.2-1.1,1.9-1.6c0.7-0.5,1.4-0.9,2.1-1.2c0.8-0.3,1.5-0.4,2.3-0.4c1,0,2,0.1,2.8,0.2c0.8,0.2,1.6,0.4,2.2,0.8
		c0.7,0.4,1.3,0.9,1.8,1.6c0.5,0.7,1,1.5,1.3,2.5c0.7-0.7,1.4-1.4,2.1-2.1s1.4-1.2,2.2-1.6c0.8-0.5,1.6-0.8,2.5-1.1
		c0.9-0.3,1.9-0.4,3-0.4c2.1,0,3.8,0.4,5.3,1.2c1.4,0.8,2.7,1.9,3.6,3.2c1,1.3,1.7,2.8,2.3,4.5c0.5,1.7,1,3.5,1.2,5.3
		c0.3,1.8,0.5,3.6,0.5,5.5C668.7,83.8,668.8,85.5,668.8,87z"/>
	<path class="st14" d="M707.3,82.9c0,1.8-0.1,3.7-0.4,5.5c-3.6,0.2-7.3,0.6-10.8,1.1c-3.6,0.5-7.2,1-10.8,1.5
		c0.6,1.5,1.4,2.8,2.6,3.7c1.2,0.9,2.6,1.4,4.2,1.4c0.9,0,1.8-0.2,2.8-0.5s2-0.7,3-1.2c1-0.5,2-1,2.9-1.5c0.9-0.6,1.7-1.1,2.4-1.5
		l-1.5,14.5c-0.8,0.6-1.7,1.2-2.7,1.6c-1,0.4-2,0.8-3,1.1c-1,0.3-2.1,0.5-3.2,0.6c-1.1,0.1-2.1,0.2-3.1,0.2c-2.1,0-4-0.3-5.8-0.9
		c-1.7-0.6-3.3-1.4-4.7-2.4s-2.7-2.2-3.7-3.7c-1.1-1.4-1.9-2.9-2.6-4.6c-0.7-1.7-1.2-3.4-1.6-5.3s-0.5-3.7-0.5-5.6
		c0-2,0.2-4,0.5-5.9s0.9-3.9,1.6-5.7c0.7-1.8,1.7-3.5,2.8-5.1c1.1-1.6,2.4-2.9,3.9-4.1c1.5-1.2,3.2-2.1,5.1-2.7c1.9-0.7,4-1,6.2-1
		c1.9,0,3.6,0.3,5.2,0.8c1.6,0.5,3,1.2,4.2,2.2c1.2,0.9,2.3,2,3.2,3.3c0.9,1.3,1.6,2.7,2.2,4.2c0.6,1.5,1,3.1,1.3,4.8
		C707.1,79.4,707.3,81.1,707.3,82.9z M694.5,81.2c0-0.6-0.1-1.2-0.2-1.8c-0.1-0.6-0.3-1.2-0.6-1.7c-0.3-0.5-0.7-0.9-1.1-1.3
		c-0.5-0.3-1.1-0.5-1.8-0.5c-0.9,0-1.6,0.2-2.2,0.7c-0.6,0.5-1.2,1-1.7,1.7c-0.5,0.7-0.9,1.4-1.1,2.2c-0.3,0.8-0.5,1.6-0.7,2.2
		l9.4-0.9V81.2z"/>
</g>
</svg>
